PathFileType	4	(X/Y/Z)	Walk4.trc
DataRate	CameraRate	NumFrames	NumMarkers	Units	OrigDataRate	OrigDataStartFrame	OrigNumFrames
200.000000	200.000000	5	59	mm	200.000000	390	506
Frame#	Times		LBHD		RBHD		C7		T10		RBack		LPSI		RPSI		RElbowM		RCAR		RFA1		LUA1		RTB1		RTH3		RTB4		LACR1		LCAR		RTH2		LWRU		RTB3		LWRR		RMT1		RWRU		RToe		LElbowM		RCAL		CLAV		RUA1		RTH4		RTH1		RWRR		RMT5		LFA1		LLFC		RACR1		RTB2		LTH1		LTH4		LFHD		RElbow		RLFC		RFHD		LElbow		RMMAL		STRN		LTH3		RLMAL		RASI		LTB2		LTH2		LTB3		LCAL		LASI		LMT5		LMT1		LTB1		LToe		LTB4		LLMAL		LMMAL
			X1	Y1	Z1	X2	Y2	Z2	X3	Y3	Z3	X4	Y4	Z4	X5	Y5	Z5	X6	Y6	Z6	X7	Y7	Z7	X8	Y8	Z8	X9	Y9	Z9	X10	Y10	Z10	X11	Y11	Z11	X12	Y12	Z12	X13	Y13	Z13	X14	Y14	Z14	X15	Y15	Z15	X16	Y16	Z16	X17	Y17	Z17	X18	Y18	Z18	X19	Y19	Z19	X20	Y20	Z20	X21	Y21	Z21	X22	Y22	Z22	X23	Y23	Z23	X24	Y24	Z24	X25	Y25	Z25	X26	Y26	Z26	X27	Y27	Z27	X28	Y28	Z28	X29	Y29	Z29	X30	Y30	Z30	X31	Y31	Z31	X32	Y32	Z32	X33	Y33	Z33	X34	Y34	Z34	X35	Y35	Z35	X36	Y36	Z36	X37	Y37	Z37	X38	Y38	Z38	X39	Y39	Z39	X40	Y40	Z40	X41	Y41	Z41	X42	Y42	Z42	X43	Y43	Z43	X44	Y44	Z44	X45	Y45	Z45	X46	Y46	Z46	X47	Y47	Z47	X48	Y48	Z48	X49	Y49	Z49	X50	Y50	Z50	X51	Y51	Z51	X52	Y52	Z52	X53	Y53	Z53	X54	Y54	Z54	X55	Y55	Z55	X56	Y56	Z56	X57	Y57	Z57	X58	Y58	Z58	X59	Y59	Z59

390	1.95	221.4	1474	-90.605	221.4	1484.7	32.714	184.97	1342.5	-17.675	147.43	1073.2	-24.045	154.99	1238.5	113.04	129.49	873.51	-63.849	121.63	891.5	33.781	273.87	931.02	174.42	491.79	778.44	234.03	368.65	866.3	241.23	265.66	1100.8	-262.14	192.89	321.54	32.939	213.8	545.47	143.22	163.26	234.01	34.201	264.26	1275.9	-181.63	344.6	717.55	-339.61	302.47	633.45	134.24	292.59	748.14	-320.24	144.77	141.91	28.569	358.76	751.12	-286.89	182.74	41.703	5.025	435.18	780.82	210.05	241.96	24.173	12.159	199.96	951.08	-213.34	32.252	52.358	58.098	305.34	1258.5	-11.22	293.51	1124.1	213.05	232.75	635.9	168.75	252.86	719.02	196.45	491.11	827.26	191.89	166.94	33.877	63.618	258.29	864.07	-307.73	424.05	454.77	-152.37	253.16	1276.3	136.91	148.74	235.33	104.79	325.69	728.91	-210.32	370.57	648.77	-186.15	394.08	1465.3	-69.361	312.54	981.39	248.25	205.39	445.59	123.02	399.78	1476	7.0102	227.91	983.7	-279.38	90.823	76.12	-4.8253	365.54	1152.5	-13.63	408.77	565.56	-163.62	97.654	68.255	76.172	251.99	884.58	131.61	473.3	261.05	-136.26	419.96	688.19	-148.83	528.2	182.56	-65.094	475.84	27.805	-55.137	333.13	849.2	-176.41	597.48	60.102	-117.05	619.5	86.247	-68.344	492.15	361.21	-75.96	670.34	82.442	-89.622	500.98	269.95	-71.11	504.69	72.481	-102.72	529.46	85.723	-28.163
391	1.955	226.62	1473.3	-91.448	226.44	1484.1	31.897	190.13	1341.8	-18.491	152.58	1072.5	-24.637	160.1	1238	112.36	134.9	872.93	-64.272	126.75	891.06	33.319	280.03	930.56	173.98	498.81	778.88	232.63	375.38	866.28	240.41	270.76	1099.9	-262.68	195.38	321.31	32.764	217.19	545.21	143.19	165.01	234.05	33.984	269.65	1275	-182.29	348.8	716.39	-340.08	306.38	632.75	134.67	296.89	747.11	-320.68	145.75	142.08	28.416	363.11	749.9	-287.37	182.93	41.769	4.8549	442.08	781.01	208.91	241.98	24.171	12.065	204.88	950.28	-213.68	32.469	53.461	57.899	310.54	1257.9	-11.848	299.29	1123.8	212.31	236.48	635.54	168.79	256.84	718.57	196.58	497.73	827.65	190.44	167	33.989	63.424	262.89	863.15	-308.14	429.39	454.08	-152.12	258.25	1275.8	136.23	150.41	235.48	104.6	330.78	728.06	-210.36	375.67	647.91	-186.1	399.28	1464.6	-69.943	318.93	981.14	247.55	208.49	445.35	122.91	404.85	1475.3	6.4559	232.8	982.83	-279.77	91.274	76.753	-4.9797	370.74	1151.8	-14.049	413.94	564.84	-163.45	98	68.866	76.012	258.88	884.84	131.3	481.39	261.13	-136.21	425.09	687.45	-148.84	536.93	183.13	-64.956	486.6	27.554	-55.744	338.82	848.41	-176.55	608.1	61.637	-116.95	629.73	87.731	-68.096	498.44	361.37	-75.41	680.72	84.521	-89.174	508.51	270.2	-70.824	515.17	72.816	-103.05	539.35	86.198	-28.291
392	1.96	231.84	1472.6	-92.324	231.49	1483.4	31.046	195.28	1341.1	-19.341	157.76	1071.9	-25.243	165.24	1237.4	111.65	140.35	872.39	-64.709	131.91	890.64	32.838	286.05	930.17	173.61	505.71	779.29	231.24	382.01	866.27	239.59	275.88	1099	-263.24	197.95	321.08	32.598	220.63	544.98	143.15	166.82	234.11	33.777	275.05	1274.1	-182.98	353.01	715.24	-340.55	310.31	632.08	135.12	301.2	746.1	-321.13	146.77	142.28	28.277	367.47	748.7	-287.86	183.13	41.851	4.6922	448.85	781.19	207.77	242	24.171	11.966	209.84	949.48	-214.01	32.708	54.643	57.708	315.75	1257.3	-12.507	305.05	1123.5	211.57	240.23	635.21	168.85	260.82	718.16	196.72	504.24	828.01	189	167.08	34.117	63.239	267.5	862.25	-308.56	434.77	453.42	-151.88	263.35	1275.3	135.51	152.14	235.66	104.42	335.91	727.26	-210.38	380.81	647.11	-186.04	404.49	1464	-70.551	325.25	980.94	246.84	211.67	445.12	122.8	409.92	1474.7	5.8723	237.7	981.97	-280.18	91.753	77.443	-5.1299	375.96	1151.2	-14.497	419.16	564.16	-163.27	98.371	69.527	75.858	266.17	885.1	130.99	489.15	261.15	-136.13	430.28	686.75	-148.89	545.21	183.59	-64.792	496.65	27.313	-56.301	344.55	847.64	-176.69	618.03	62.993	-116.8	639.3	89.026	-67.815	504.58	361.44	-74.881	690.42	86.331	-88.684	515.75	270.35	-70.533	525	73.095	-103.32	548.61	86.58	-28.373
393	1.965	237.07	1472	-93.234	236.53	1482.8	30.16	200.44	1340.5	-20.226	162.95	1071.2	-25.861	170.39	1236.9	110.91	145.85	871.88	-65.16	137.12	890.25	32.339	291.92	929.84	173.31	512.46	779.68	229.86	388.53	866.28	238.76	281.03	1098.1	-263.81	200.6	320.87	32.446	224.14	544.77	143.11	168.7	234.21	33.584	280.45	1273.3	-183.69	357.24	714.09	-341.02	314.27	631.45	135.6	305.53	745.11	-321.59	147.84	142.51	28.154	371.86	747.52	-288.36	183.35	41.949	4.5396	455.48	781.37	206.63	242.01	24.174	11.865	214.84	948.7	-214.34	32.972	55.906	57.528	320.97	1256.7	-13.198	310.79	1123.3	210.81	244	634.91	168.92	264.81	717.78	196.85	510.64	828.34	187.58	167.17	34.26	63.065	272.13	861.36	-308.99	440.19	452.8	-151.65	268.48	1274.8	134.76	153.93	235.88	104.25	341.08	726.51	-210.38	386.02	646.36	-185.99	409.7	1463.4	-71.184	331.51	980.76	246.12	214.92	444.9	122.7	415	1474.1	5.2582	242.61	981.13	-280.6	92.262	78.192	-5.2712	381.2	1150.6	-14.976	424.43	563.54	-163.09	98.774	70.242	75.718	273.86	885.36	130.66	496.56	261.12	-136.03	435.56	686.11	-148.97	553.02	183.91	-64.603	505.96	27.068	-56.804	350.33	846.89	-176.82	627.25	64.132	-116.61	648.21	90.095	-67.494	510.58	361.41	-74.376	699.44	87.829	-88.139	522.68	270.41	-70.238	534.16	73.295	-103.55	557.23	86.848	-28.408
394	1.97	242.31	1471.4	-94.177	241.58	1482.2	29.24	205.6	1339.9	-21.146	168.18	1070.6	-26.491	175.55	1236.5	110.15	151.39	871.41	-65.627	142.38	889.87	31.818	297.65	929.58	173.06	519.08	780.03	228.49	394.95	866.31	237.93	286.19	1097.3	-264.41	203.35	320.66	32.309	227.71	544.58	143.05	170.65	234.32	33.405	285.86	1272.5	-184.43	361.48	712.97	-341.49	318.27	630.85	136.1	309.87	744.14	-322.04	148.95	142.77	28.048	376.27	746.37	-288.87	183.58	42.064	4.3998	461.99	781.53	205.5	242.03	24.18	11.762	219.87	947.93	-214.66	33.264	57.252	57.365	326.21	1256.2	-13.922	316.49	1123.1	210.04	247.81	634.64	168.99	268.81	717.43	196.96	516.92	828.64	186.17	167.29	34.421	62.904	276.77	860.5	-309.42	445.67	452.21	-151.43	273.62	1274.4	133.98	155.8	236.13	104.09	346.32	725.81	-210.37	391.28	645.66	-185.93	414.92	1462.8	-71.843	337.7	980.62	245.4	218.28	444.7	122.6	420.09	1473.5	4.6127	247.53	980.31	-281.02	92.803	79	-5.3988	386.45	1150.1	-15.489	429.76	562.96	-162.9	99.21	71.014	75.6	281.93	885.62	130.32	503.62	261	-135.9	440.92	685.52	-149.08	560.36	184.09	-64.386	514.52	26.812	-57.253	356.13	846.17	-176.93	635.78	65.021	-116.38	656.45	90.903	-67.126	516.44	361.29	-73.896	707.78	88.974	-87.533	529.32	270.35	-69.937	542.65	73.399	-103.72	565.21	86.98	-28.394
